<?xml version="1.0" standalone="no"?>
<!DOCTYPE svg PUBLIC "-//W3C//DTD SVG 20010904//EN"
 "http://www.w3.org/TR/2001/REC-SVG-20010904/DTD/svg10.dtd">
<svg version="1.0" xmlns="http://www.w3.org/2000/svg"
 width="2160.000000pt" height="2160.000000pt" viewBox="0 0 2160.000000 2160.000000"
 preserveAspectRatio="xMidYMid meet">
<metadata>
Created by potrace 1.14, written by Peter Selinger 2001-2017
</metadata>
<g transform="translate(0.000000,2160.000000) scale(0.100000,-0.100000)"
fill="#000000" stroke="none">
<path d="M10428 20795 c-1 -1 -70 -6 -153 -9 -82 -4 -166 -9 -185 -11 -19 -2
-75 -6 -125 -9 -49 -4 -101 -8 -115 -11 -14 -2 -61 -7 -104 -10 -43 -4 -88 -8
-99 -10 -10 -3 -45 -7 -76 -10 -31 -4 -83 -10 -116 -15 -33 -5 -82 -12 -110
-15 -40 -5 -381 -62 -470 -80 -363 -69 -872 -204 -1255 -332 -183 -62 -524
-188 -625 -233 -11 -5 -105 -45 -210 -90 -216 -93 -617 -291 -810 -400 -71
-40 -150 -84 -175 -98 -411 -231 -1014 -653 -1410 -986 -330 -279 -685 -616
-940 -896 -52 -57 -102 -111 -110 -120 -21 -22 -175 -202 -241 -280 -166 -199
-409 -521 -553 -735 -49 -71 -95 -139 -102 -150 -30 -42 -104 -157 -104 -161
0 -3 -17 -31 -38 -62 -41 -60 -262 -438 -262 -446 0 -3 -14 -29 -31 -58 -63
-106 -291 -570 -366 -742 -19 -44 -40 -94 -47 -110 -143 -332 -292 -752 -400
-1121 -51 -178 -112 -408 -122 -465 -3 -14 -11 -50 -19 -80 -15 -59 -41 -178
-50 -232 -3 -18 -10 -49 -15 -68 -8 -32 -17 -83 -25 -135 -1 -11 -10 -58 -18
-105 -18 -95 -26 -148 -33 -200 -2 -19 -6 -46 -9 -60 -2 -14 -7 -47 -11 -75
-3 -27 -8 -58 -10 -68 -2 -10 -8 -64 -14 -120 -6 -56 -13 -115 -15 -132 -5
-39 -13 -121 -20 -215 -3 -41 -8 -97 -10 -125 -26 -299 -26 -1110 -1 -1425 2
-25 7 -81 11 -125 3 -44 8 -96 10 -115 2 -19 6 -64 9 -100 4 -36 8 -75 10 -85
2 -11 7 -49 11 -85 9 -90 19 -164 40 -300 2 -14 9 -56 15 -95 14 -95 46 -266
76 -410 13 -66 26 -129 28 -140 15 -79 106 -433 156 -607 86 -299 240 -752
301 -885 10 -24 19 -49 19 -56 0 -7 4 -17 8 -22 5 -6 15 -26 22 -45 39 -103
194 -449 276 -615 226 -461 484 -897 801 -1355 33 -48 300 -406 320 -430 12
-14 47 -56 78 -95 31 -38 63 -79 72 -90 28 -34 237 -279 253 -295 8 -9 56 -61
105 -115 299 -329 717 -718 1105 -1031 381 -307 937 -684 1325 -899 22 -12 83
-46 135 -75 374 -208 960 -473 1360 -615 58 -20 114 -41 125 -46 68 -29 685
-218 765 -234 8 -2 69 -17 135 -33 123 -30 247 -60 281 -66 10 -2 89 -18 174
-35 85 -18 171 -34 190 -37 19 -3 73 -12 119 -20 79 -13 224 -35 331 -49 152
-20 193 -24 260 -30 41 -3 89 -8 105 -10 17 -3 71 -7 120 -11 50 -3 106 -7
125 -9 216 -26 1133 -26 1415 0 61 5 173 15 240 21 33 2 78 7 100 9 227 25
230 26 325 40 14 2 75 11 135 20 61 8 136 20 167 25 32 6 70 12 85 15 15 2 49
9 77 14 28 6 62 13 76 15 24 4 260 53 290 60 8 2 33 9 55 14 22 6 51 13 65 16
82 14 465 120 685 189 166 52 557 189 620 217 11 5 45 19 75 31 30 11 69 27
85 34 17 7 95 41 174 75 232 99 670 312 799 389 29 17 55 31 59 31 3 0 39 20
80 45 40 25 76 45 78 45 2 0 57 32 122 72 65 39 127 76 138 82 42 24 166 105
342 223 534 359 1021 760 1478 1218 145 146 206 210 345 361 305 330 707 850
960 1240 144 223 214 337 315 516 47 84 90 160 95 168 5 8 30 56 56 105 282
541 478 998 654 1525 70 211 155 495 175 585 3 11 16 65 31 119 14 55 27 107
29 115 77 345 138 661 160 821 8 52 37 269 40 291 2 14 9 73 15 130 6 57 13
120 15 139 28 259 40 547 40 975 -1 414 -10 630 -40 933 -2 20 -6 66 -9 102
-4 36 -8 76 -10 90 -3 14 -7 52 -11 85 -3 33 -8 74 -10 90 -3 17 -7 48 -10 70
-6 48 -9 64 -35 230 -12 72 -23 139 -25 150 -6 30 -24 127 -29 155 -2 14 -16
81 -31 150 -14 69 -28 135 -31 147 -13 67 -138 538 -173 658 -127 422 -309
905 -496 1310 -56 123 -247 501 -293 583 -23 41 -42 75 -42 77 0 2 -27 49 -60
105 -33 56 -60 103 -60 105 0 2 -27 47 -60 100 -33 53 -60 98 -60 101 0 3 -9
17 -19 32 -11 15 -63 95 -117 177 -166 257 -369 537 -568 785 -119 147 -128
159 -141 174 -6 6 -51 58 -100 116 -50 58 -92 107 -95 110 -3 3 -57 61 -120
130 -211 230 -555 565 -765 745 -38 33 -79 68 -90 78 -41 38 -274 227 -385
314 -187 146 -660 477 -782 548 -9 6 -97 58 -195 117 -261 156 -408 236 -695
380 -141 70 -259 128 -261 128 -3 0 -44 18 -93 41 -271 126 -787 320 -1154
432 -200 62 -609 171 -722 192 -11 2 -27 6 -36 9 -9 3 -33 8 -52 11 -19 3 -64
12 -100 20 -74 16 -257 51 -310 60 -19 3 -46 8 -60 10 -14 3 -41 7 -60 9 -20
3 -47 7 -60 10 -14 3 -47 8 -75 11 -82 11 -108 14 -145 20 -19 3 -53 7 -75 9
-115 13 -162 19 -176 21 -8 2 -53 6 -100 10 -46 3 -97 8 -114 10 -16 2 -79 6
-140 10 -60 4 -128 9 -150 11 -46 5 -922 14 -927 9z m872 -1510 c151 -9 317
-22 380 -30 19 -3 58 -7 85 -10 87 -10 207 -25 280 -36 39 -6 81 -12 95 -14
154 -23 415 -74 590 -116 69 -17 132 -32 140 -34 265 -59 724 -207 1075 -347
143 -57 166 -67 260 -109 394 -175 787 -381 1043 -546 45 -29 85 -53 88 -53 5
0 255 -168 374 -251 493 -346 1010 -808 1436 -1284 387 -433 740 -923 1039
-1445 159 -276 354 -672 460 -935 16 -38 32 -74 37 -80 4 -5 8 -15 8 -22 0 -7
9 -32 19 -56 46 -99 150 -399 225 -647 47 -151 146 -525 160 -600 2 -14 10
-47 16 -75 15 -64 19 -83 25 -120 3 -16 14 -77 25 -135 24 -130 31 -168 35
-200 2 -14 11 -70 19 -125 15 -102 20 -142 31 -250 3 -33 8 -76 10 -95 12 -93
19 -183 32 -405 10 -166 10 -803 0 -959 -8 -113 -10 -139 -22 -281 -12 -134
-43 -400 -50 -425 -2 -8 -7 -42 -10 -75 -4 -32 -8 -62 -10 -65 -1 -3 -6 -27
-9 -55 -5 -38 -80 -421 -101 -515 -43 -194 -154 -587 -224 -790 -63 -184 -60
-177 -74 -177 -18 0 -167 -13 -207 -18 -30 -3 -127 -11 -245 -20 -97 -7 -213
-17 -235 -21 -14 -2 -70 -6 -125 -10 -55 -3 -107 -8 -117 -9 -9 -2 -54 -7
-100 -10 -46 -4 -99 -8 -118 -10 -19 -2 -78 -6 -130 -10 l-95 -7 117 60 c263
136 487 314 693 552 76 88 180 247 273 420 132 245 249 661 279 996 15 164 9
501 -11 600 -2 12 -7 38 -10 57 -3 20 -17 82 -30 139 -117 491 -416 929 -860
1260 -162 121 -480 295 -651 357 -33 12 -69 26 -80 31 -78 37 -358 111 -526
140 -226 40 -292 45 -554 45 -258 0 -319 -5 -533 -45 -90 -16 -96 -17 -143
-30 -130 -37 -383 -122 -494 -168 -27 -11 -97 -39 -155 -62 -107 -43 -421
-178 -520 -222 -30 -14 -95 -44 -145 -66 -49 -22 -130 -59 -180 -82 -49 -23
-106 -49 -125 -57 -42 -19 -127 -58 -235 -108 -88 -41 -168 -78 -260 -120 -33
-15 -89 -41 -125 -57 -258 -118 -740 -320 -890 -373 -36 -12 -118 -41 -183
-64 -113 -40 -368 -117 -412 -125 -11 -2 -40 -9 -65 -16 -49 -13 -51 -14 -165
-35 -151 -29 -300 -42 -452 -41 -83 1 -155 4 -158 8 -22 22 171 329 308 493
95 113 295 317 406 415 41 36 79 70 85 76 10 9 182 153 231 193 64 51 208 164
260 202 33 24 62 46 65 50 6 6 388 286 423 309 12 8 197 139 411 290 214 151
408 289 431 305 24 17 56 40 71 52 16 12 83 61 149 109 116 85 358 270 421
323 17 14 53 44 80 66 298 246 456 413 619 660 93 139 111 171 191 329 127
253 224 535 273 796 32 169 33 173 48 315 16 144 7 575 -12 645 -2 8 -6 33 -9
55 -23 195 -122 501 -229 705 -49 93 -160 270 -201 319 -191 227 -330 353
-547 495 -199 129 -520 272 -759 337 -25 7 -49 14 -55 15 -61 18 -220 51 -285
60 -25 3 -52 7 -60 9 -61 16 -339 23 -481 12 -135 -10 -351 -49 -423 -77 -15
-5 -37 -12 -50 -14 -21 -4 -94 -31 -211 -78 -207 -83 -496 -273 -688 -450 -34
-32 -33 -32 -34 -15 0 6 -4 28 -7 47 -4 19 -11 60 -16 90 -6 30 -12 66 -15 80
-3 14 -12 66 -21 115 -21 127 -23 137 -29 165 -3 14 -10 52 -15 85 -6 33 -15
83 -21 110 -8 43 -81 447 -95 530 -2 17 -7 37 -9 45 -2 8 -7 35 -10 60 -4 25
-11 67 -16 94 -15 80 -22 76 104 71 61 -3 155 -7 207 -10z m-1788 -445 c225
-324 321 -461 458 -656 125 -178 123 -171 31 -109 -45 30 -107 68 -138 85 -31
17 -61 34 -67 38 -45 33 -284 128 -431 171 -202 58 -353 76 -630 75 -178 -1
-232 -6 -355 -27 -161 -29 -160 -29 -245 -52 -33 -9 -67 -18 -75 -20 -37 -9
-254 -86 -335 -119 -227 -94 -523 -273 -669 -405 -333 -301 -541 -633 -661
-1052 -19 -66 -36 -131 -38 -146 -4 -25 -17 -99 -32 -178 -20 -110 -28 -521
-12 -658 88 -797 444 -1513 977 -1967 36 -30 71 -61 79 -69 75 -71 512 -406
796 -610 94 -67 179 -129 190 -137 11 -8 178 -126 370 -262 428 -303 435 -308
734 -532 157 -117 394 -307 491 -392 379 -333 595 -575 747 -833 71 -121 97
-174 88 -183 -9 -9 -323 -8 -407 1 -220 24 -527 99 -832 202 -142 48 -458 168
-551 210 -16 7 -109 47 -206 89 -96 41 -209 90 -250 109 -41 19 -96 44 -124
57 -27 12 -72 33 -100 45 -27 13 -108 50 -180 83 -221 101 -289 133 -307 142
-15 8 -253 116 -388 177 -30 13 -68 30 -85 38 -45 22 -282 125 -345 150 -30
12 -104 43 -165 67 -281 116 -564 211 -720 242 -166 34 -205 39 -360 52 -107
8 -380 9 -456 0 -30 -3 -81 -8 -114 -11 -51 -5 -142 -19 -260 -40 -216 -39
-513 -136 -725 -237 -440 -211 -775 -487 -1035 -855 -158 -223 -310 -617 -341
-884 -3 -30 -9 -72 -13 -95 -13 -68 -10 -422 4 -534 17 -137 26 -200 31 -225
3 -11 9 -42 15 -70 37 -188 127 -461 208 -630 70 -147 182 -324 290 -455 74
-91 250 -261 349 -338 218 -167 484 -304 765 -392 l37 -12 -42 -35 c-24 -19
-65 -54 -93 -78 -49 -42 -397 -336 -525 -443 -36 -30 -72 -62 -82 -71 -9 -9
-29 -26 -45 -38 -15 -12 -37 -30 -48 -40 -11 -10 -47 -40 -80 -67 -33 -27 -64
-54 -70 -60 -24 -26 -174 -146 -182 -146 -10 0 -234 438 -288 560 -15 36 -38
88 -51 115 -12 28 -35 79 -49 115 -15 36 -33 79 -40 95 -7 17 -27 68 -45 115
-18 47 -38 99 -46 115 -13 29 -164 487 -202 615 -21 67 -117 446 -126 490 -2
14 -10 48 -16 75 -6 28 -14 61 -16 75 -2 14 -9 45 -14 70 -5 25 -12 61 -15 80
-3 19 -10 58 -15 85 -20 103 -22 115 -48 310 -12 83 -24 179 -27 215 -3 36 -8
74 -10 85 -2 11 -7 58 -10 105 -4 47 -9 101 -11 120 -26 270 -26 1004 1 1315
17 193 23 251 30 305 3 19 7 58 10 85 10 86 25 198 35 250 6 28 12 66 14 85 2
19 12 76 22 125 9 50 18 97 19 105 3 24 21 111 29 148 2 9 11 51 20 92 9 41
41 170 71 285 31 116 57 217 59 225 30 115 184 566 243 715 180 446 332 764
541 1130 554 970 1323 1852 2202 2524 52 39 102 78 111 85 93 76 463 325 664
446 123 74 140 84 235 138 30 17 80 44 110 61 275 154 731 363 1063 487 310
116 780 261 967 299 8 2 35 8 60 15 25 7 52 13 60 15 22 4 301 63 325 68 70
16 58 29 297 -313z m-174 -621 c34 -5 77 -11 95 -14 17 -3 46 -8 62 -11 39 -6
174 -42 200 -53 11 -5 47 -19 80 -31 91 -35 244 -112 321 -162 55 -35 80 -61
123 -124 30 -43 63 -89 74 -101 27 -30 18 -29 -56 8 -378 192 -810 174 -1247
-50 -115 -60 -213 -132 -310 -230 -125 -126 -185 -218 -260 -396 -25 -60 -54
-173 -66 -265 -3 -19 -7 -48 -9 -65 -5 -36 -6 -250 -1 -285 2 -14 7 -48 10
-75 26 -199 119 -456 237 -655 95 -160 255 -321 514 -516 90 -68 70 -54 526
-373 292 -205 629 -452 711 -523 14 -13 56 -48 92 -78 84 -70 293 -282 333
-338 l31 -42 65 77 c189 226 484 469 1023 843 573 397 770 545 909 685 108
108 121 124 192 231 97 150 210 413 229 534 2 8 5 26 9 40 29 123 41 408 22
540 -30 202 -115 406 -237 565 -41 54 -184 186 -254 234 -97 67 -262 148 -381
189 -80 27 -105 34 -165 49 -89 21 -204 31 -325 28 -77 -2 -151 -6 -165 -9
-126 -23 -247 -64 -363 -122 -61 -31 -89 -41 -91 -32 -18 59 -6 77 119 169
270 200 543 310 875 353 127 16 404 11 512 -9 12 -3 40 -7 63 -11 223 -32 526
-142 760 -275 180 -102 393 -283 522 -444 90 -112 224 -338 261 -440 6 -16 22
-64 37 -105 15 -41 36 -109 47 -150 24 -92 33 -142 57 -320 11 -83 11 -416 0
-495 -4 -33 -11 -87 -14 -120 -4 -33 -9 -63 -11 -66 -2 -4 -6 -24 -10 -45 -3
-22 -16 -82 -29 -134 -115 -461 -327 -850 -629 -1155 -125 -125 -162 -158
-341 -305 -102 -83 -98 -80 -175 -139 -36 -28 -69 -54 -75 -59 -5 -4 -41 -31
-80 -60 -38 -28 -74 -55 -80 -60 -23 -19 -316 -231 -525 -380 -124 -88 -243
-173 -265 -190 -92 -67 -401 -298 -420 -313 -230 -187 -334 -278 -465 -409
-182 -182 -310 -353 -384 -513 -20 -43 -36 -80 -36 -82 0 -3 -11 -28 -24 -57
-14 -29 -52 -118 -86 -198 -58 -136 -80 -179 -80 -153 0 9 -56 144 -167 403
-57 134 -136 272 -199 350 -273 336 -566 586 -1318 1125 -239 172 -291 209
-326 233 -14 9 -32 22 -40 29 -8 6 -125 94 -260 195 -135 101 -256 193 -270
205 -14 12 -81 68 -150 124 -139 114 -180 151 -285 256 -200 198 -386 481
-496 753 -17 41 -34 84 -39 95 -46 112 -117 378 -135 500 -3 23 -7 51 -10 64
-20 107 -28 499 -12 631 31 258 126 560 230 735 230 386 487 616 896 803 143
65 397 145 531 166 19 3 45 8 57 10 12 3 53 8 90 11 37 4 70 9 71 10 8 7 321
2 380 -6z m1598 -1321 c306 -48 558 -274 655 -588 31 -101 34 -318 5 -425 -85
-321 -343 -554 -676 -610 -47 -8 -196 -8 -240 0 -266 48 -482 200 -602 425
-45 86 -63 136 -87 245 -8 40 -7 251 1 295 40 202 156 385 322 510 93 70 238
132 342 146 27 3 51 8 54 11 7 7 163 1 226 -9z m-5126 -5244 c209 -23 450 -84
650 -164 25 -10 106 -42 180 -70 192 -75 343 -138 595 -250 213 -94 254 -113
414 -187 804 -371 1306 -551 1673 -600 74 -10 309 -10 393 1 39 4 85 10 104
11 19 2 50 6 70 9 39 6 84 12 171 21 30 4 67 8 83 11 15 2 27 2 27 -1 0 -3
-62 -87 -138 -188 -180 -237 -222 -298 -266 -381 -52 -97 -112 -250 -152 -391
-31 -105 -41 -145 -60 -230 -7 -31 -24 -117 -30 -150 -2 -16 -7 -37 -9 -45 -2
-8 -7 -37 -11 -65 -3 -27 -8 -53 -10 -56 -1 -3 -6 -31 -9 -63 -4 -31 -8 -66
-10 -77 -7 -34 -34 -241 -40 -304 -3 -33 -8 -71 -10 -85 -3 -14 -7 -50 -10
-80 -3 -30 -7 -75 -10 -100 -3 -25 -7 -72 -10 -105 -3 -33 -7 -76 -10 -95 -3
-19 -7 -62 -10 -95 -17 -192 -24 -272 -30 -310 -2 -16 -7 -57 -10 -90 -3 -33
-10 -94 -15 -135 -5 -41 -12 -100 -15 -130 -4 -30 -8 -66 -10 -80 -2 -14 -7
-47 -10 -74 -8 -69 -38 -273 -49 -336 -3 -14 -12 -70 -22 -125 -31 -188 -82
-375 -144 -530 -32 -81 -140 -299 -170 -345 -150 -226 -237 -336 -385 -486
-364 -367 -798 -609 -1240 -689 -246 -45 -531 -37 -760 20 -88 22 -86 22 -140
40 -514 174 -992 594 -1230 1080 -32 66 -62 129 -67 140 -25 65 -49 140 -67
210 -24 95 -34 152 -47 255 -10 83 -11 272 -3 343 5 39 22 91 46 142 22 44 44
91 50 105 11 23 12 21 13 -25 9 -367 157 -684 436 -935 88 -79 110 -97 186
-149 317 -216 658 -279 999 -185 508 140 967 620 1084 1135 14 59 27 124 30
145 3 22 8 49 10 61 3 12 7 41 10 65 3 24 8 54 10 68 3 23 15 129 20 190 1 14
5 54 9 90 10 99 15 148 22 235 3 44 7 96 9 115 2 19 6 73 10 120 4 47 9 99 11
115 1 17 5 66 9 110 3 44 8 87 10 95 2 8 7 49 10 90 4 41 8 86 10 100 6 39 14
101 20 150 3 25 12 86 21 135 15 91 19 110 28 155 3 14 11 50 17 80 12 57 73
270 88 305 16 39 31 76 31 79 0 2 -21 7 -47 11 -94 13 -109 16 -203 40 -210
53 -534 175 -820 308 -250 116 -370 172 -494 231 -76 36 -140 66 -141 66 -2 0
-47 21 -102 46 -208 97 -424 184 -563 225 -149 45 -401 64 -578 46 -230 -24
-492 -112 -697 -234 -95 -57 -259 -201 -338 -298 -30 -37 -109 -161 -124 -195
-6 -14 -21 -47 -33 -75 -12 -27 -33 -92 -46 -144 -66 -259 -51 -547 44 -831
91 -275 283 -520 520 -665 34 -21 62 -40 62 -44 0 -3 -12 -15 -27 -27 l-28
-22 -80 29 c-96 36 -273 124 -352 176 -156 102 -335 263 -425 382 -24 31 -48
62 -55 69 -28 29 -130 204 -179 307 -46 95 -132 330 -149 405 -18 86 -54 266
-60 307 -14 96 -13 406 1 516 72 544 381 1019 874 1343 114 75 294 170 410
217 47 19 94 38 105 42 11 5 22 9 25 10 3 1 42 13 88 28 90 29 266 74 322 83
19 3 46 7 60 10 35 5 93 13 170 23 104 12 385 10 510 -5z m10530 -3 c123 -16
145 -20 245 -42 50 -11 99 -22 110 -24 60 -13 244 -74 340 -112 503 -202 908
-549 1122 -964 186 -358 244 -725 188 -1169 -8 -62 -57 -280 -81 -359 -91
-301 -253 -589 -443 -786 -111 -116 -165 -161 -336 -283 -26 -18 -76 -45 -150
-82 -67 -33 -94 -40 -165 -46 -47 -3 -102 -8 -123 -9 -36 -3 -36 -2 40 47 105
68 207 161 283 257 71 90 69 87 131 207 42 81 97 225 114 299 26 114 34 160
41 251 20 239 -5 424 -81 610 -146 354 -493 635 -926 748 -51 14 -110 27 -129
30 -19 3 -46 8 -60 11 -46 9 -145 16 -245 17 -311 4 -530 -67 -1225 -395 -52
-24 -140 -66 -195 -92 -364 -171 -647 -291 -865 -366 -77 -27 -242 -76 -280
-84 -8 -2 -50 -10 -92 -19 -42 -9 -89 -16 -102 -16 l-26 0 21 -52 c48 -119 79
-234 118 -428 33 -160 39 -197 56 -335 4 -33 8 -71 10 -85 2 -14 7 -52 10 -85
3 -33 8 -73 10 -90 2 -16 7 -66 10 -110 3 -44 8 -91 10 -105 2 -14 7 -63 10
-110 4 -47 8 -101 10 -120 2 -19 7 -75 10 -125 4 -49 9 -103 11 -120 2 -16 6
-64 9 -105 7 -83 10 -119 21 -200 4 -30 7 -58 6 -62 -1 -4 3 -31 8 -60 5 -29
11 -73 14 -98 34 -268 104 -466 244 -680 108 -167 257 -326 413 -441 94 -69
96 -69 209 -128 303 -155 600 -187 896 -96 180 55 339 146 522 300 114 95 238
247 310 378 101 184 147 368 151 594 l1 63 28 -12 c40 -17 39 -16 56 -98 40
-197 40 -478 1 -675 -90 -450 -353 -862 -758 -1186 -153 -123 -245 -182 -407
-260 -188 -92 -370 -144 -605 -175 -59 -7 -327 -8 -370 -1 -16 3 -55 9 -85 12
-246 29 -595 164 -854 332 -182 118 -289 205 -451 368 -294 295 -502 633 -617
1005 -19 64 -72 287 -81 345 -3 17 -10 57 -15 90 -6 33 -14 78 -17 100 -3 22
-12 83 -20 135 -14 96 -18 124 -30 215 -3 28 -8 64 -10 81 -3 17 -7 57 -10 90
-3 32 -8 70 -10 84 -3 14 -7 57 -11 95 -3 39 -7 81 -9 95 -1 14 -6 57 -9 95
-4 39 -9 84 -11 100 -2 17 -7 68 -11 115 -3 47 -8 94 -10 105 -2 11 -6 54 -9
95 -3 41 -8 86 -10 100 -3 14 -7 54 -10 90 -4 36 -8 81 -10 100 -3 19 -7 59
-10 88 -2 29 -9 81 -14 115 -6 34 -13 85 -16 112 -8 74 -35 258 -40 275 -3 8
-7 33 -11 55 -5 37 -14 80 -49 242 -38 175 -112 388 -186 536 -35 68 -109 188
-129 207 -7 6 -273 360 -282 375 -7 12 7 12 97 1 28 -4 66 -9 85 -11 19 -2 59
-7 89 -11 30 -3 63 -7 73 -9 141 -28 464 -25 608 4 326 67 622 168 1100 374
159 68 213 92 390 174 30 14 94 43 142 64 48 21 116 52 150 68 101 47 453 199
583 253 394 162 620 240 820 283 111 24 146 29 265 41 36 3 66 7 68 9 8 7 370
-5 442 -14z m-5477 -959 c179 -292 307 -672 397 -1177 11 -60 22 -119 24 -130
5 -24 23 -151 40 -270 11 -81 17 -121 21 -145 2 -14 6 -52 10 -85 3 -33 8 -78
11 -100 10 -80 14 -121 20 -190 3 -38 7 -77 9 -85 2 -8 7 -55 11 -105 3 -49 8
-98 10 -108 1 -9 6 -54 9 -100 3 -45 8 -98 10 -117 2 -19 6 -66 10 -105 3 -38
8 -83 10 -100 2 -16 7 -70 10 -120 4 -49 8 -101 10 -115 2 -14 7 -56 10 -95 4
-38 8 -86 11 -105 2 -19 6 -69 10 -110 3 -41 7 -86 9 -100 2 -14 7 -52 10 -85
8 -74 11 -107 25 -215 6 -47 13 -103 16 -125 7 -57 25 -185 30 -215 2 -14 13
-79 24 -145 39 -236 71 -375 120 -523 287 -865 1049 -1625 1893 -1886 103 -32
173 -51 237 -62 14 -3 32 -7 40 -9 8 -2 38 -7 65 -10 28 -4 77 -11 110 -15 63
-10 439 -6 490 4 17 3 46 9 65 12 19 3 46 8 60 10 360 64 744 254 1095 543
110 90 307 288 394 394 157 194 315 475 389 692 40 118 72 244 93 366 27 158
34 492 13 644 -16 115 -49 292 -59 318 -6 14 20 7 136 -34 79 -28 176 -62 214
-75 39 -14 79 -29 90 -34 11 -5 83 -31 160 -58 420 -150 848 -304 853 -308 2
-1 -17 -35 -42 -74 -25 -39 -46 -72 -46 -75 0 -18 -341 -508 -457 -655 -584
-746 -1240 -1360 -1991 -1864 -176 -118 -360 -236 -368 -236 -2 0 -23 -11 -45
-26 -47 -29 -67 -41 -248 -141 -237 -132 -607 -309 -841 -403 -58 -23 -114
-46 -125 -51 -111 -50 -549 -198 -775 -262 -153 -44 -502 -131 -570 -142 -19
-3 -51 -10 -70 -15 -20 -5 -51 -12 -70 -14 -19 -3 -73 -12 -120 -21 -47 -9
-96 -18 -110 -20 -14 -2 -38 -6 -55 -9 -16 -2 -66 -10 -110 -16 -44 -6 -91
-13 -105 -15 -94 -14 -236 -30 -365 -41 -38 -3 -88 -7 -110 -9 -144 -13 -365
-20 -660 -20 -344 0 -519 7 -760 29 -38 4 -95 9 -125 12 -30 2 -68 6 -85 9
-16 2 -48 6 -70 9 -216 28 -294 40 -355 51 -14 3 -43 8 -65 11 -22 3 -44 7
-50 9 -5 1 -28 5 -50 9 -498 93 -1058 251 -1495 423 -76 30 -69 27 -235 96
-1213 509 -2304 1307 -3171 2319 l-30 36 20 43 c11 24 44 95 73 158 30 63 63
135 75 160 11 25 47 101 79 169 33 68 59 125 59 127 0 1 27 61 61 131 93 197
151 321 189 406 19 43 38 77 41 78 3 0 2 -21 -2 -47 -8 -53 -4 -429 6 -508 5
-41 25 -143 50 -258 23 -104 114 -346 168 -447 177 -329 344 -538 622 -780
272 -237 565 -411 870 -515 28 -9 57 -18 65 -20 8 -2 31 -9 50 -15 29 -8 113
-27 200 -45 8 -1 44 -6 80 -10 36 -5 74 -10 85 -11 32 -5 358 -5 382 0 12 3
46 7 75 10 362 40 776 205 1138 454 52 36 97 68 100 71 3 3 25 22 50 41 445
345 828 873 999 1378 28 83 67 218 77 265 9 41 25 122 30 152 3 17 14 80 24
140 19 110 44 277 55 370 3 28 10 86 16 130 5 44 12 98 15 120 2 22 7 56 9 75
3 19 7 64 10 100 3 36 8 76 10 90 2 14 6 61 10 105 3 44 7 91 10 105 2 14 7
59 10 100 3 41 8 91 10 110 2 19 7 67 10 105 6 75 13 153 20 225 2 25 7 77 11
115 3 39 7 86 9 105 2 19 6 64 10 100 3 36 7 81 10 100 2 19 7 64 10 100 3 36
8 76 10 90 2 14 7 54 11 90 3 36 8 74 10 85 2 11 6 45 9 75 3 30 7 66 10 80 5
34 13 95 20 150 15 110 34 222 76 440 63 323 178 704 265 871 8 16 15 32 16
36 9 38 159 274 170 267 4 -3 31 -44 61 -92z m-4438 -1751 c510 -132 765 -695
528 -1166 -178 -355 -591 -531 -968 -414 -145 45 -242 104 -350 213 -145 146
-223 328 -230 536 -4 122 6 195 40 300 78 236 285 440 527 519 133 43 313 48
453 12z m9129 9 c255 -39 505 -239 609 -485 84 -200 86 -439 5 -632 -47 -113
-100 -189 -217 -310 -21 -22 -122 -88 -176 -116 -58 -29 -157 -63 -218 -74
-87 -16 -277 -8 -360 15 -399 112 -654 491 -603 897 7 60 21 122 36 160 84
221 219 375 415 472 53 27 140 60 140 54 0 -1 13 2 28 8 16 6 58 14 95 17 37
4 68 7 69 8 6 5 112 -4 177 -14z"/>
<path d="M9105 18073 c-281 -33 -482 -92 -745 -220 -217 -105 -345 -195 -507
-360 -235 -238 -377 -535 -438 -918 -10 -65 -14 -404 -5 -480 17 -142 34 -238
65 -350 9 -33 20 -73 25 -90 29 -112 150 -387 226 -515 34 -58 142 -213 185
-265 147 -181 466 -439 998 -810 495 -346 611 -427 666 -466 101 -73 410 -302
415 -308 3 -3 31 -25 62 -49 250 -185 623 -546 741 -716 5 -7 11 -5 18 6 50
85 345 385 539 548 237 200 607 475 965 720 36 25 80 55 98 68 18 13 127 89
242 169 599 415 886 649 1046 853 24 30 46 57 49 60 9 7 112 167 143 222 116
201 211 454 263 697 37 173 53 474 34 636 -11 92 -20 157 -25 175 -2 8 -7 31
-10 50 -9 56 -81 262 -120 347 -228 494 -755 857 -1420 977 -99 18 -345 25
-455 13 -97 -11 -222 -38 -317 -68 -90 -29 -203 -76 -153 -64 171 41 391 49
540 20 14 -2 39 -7 55 -9 72 -12 99 -17 107 -22 4 -3 18 -7 30 -9 64 -13 197
-63 313 -120 372 -183 627 -499 721 -892 17 -74 19 -86 33 -183 10 -63 8 -404
-2 -445 -3 -11 -8 -40 -12 -65 -12 -80 -55 -246 -81 -316 -14 -38 -29 -78 -32
-88 -3 -11 -23 -56 -46 -100 -22 -45 -40 -83 -41 -86 -2 -15 -124 -200 -168
-255 -114 -145 -281 -294 -593 -530 -51 -38 -103 -78 -116 -87 -13 -9 -51 -37
-86 -63 -35 -25 -177 -127 -315 -227 -139 -99 -274 -198 -302 -219 -27 -21
-55 -42 -60 -46 -155 -118 -347 -286 -449 -394 -144 -153 -201 -247 -327 -541
-29 -70 -56 -128 -59 -128 -3 0 -14 21 -24 48 -11 26 -33 76 -49 112 -16 36
-35 79 -42 95 -76 171 -99 210 -201 335 -77 95 -237 248 -389 370 -44 36 -82
67 -85 70 -16 16 -204 155 -475 350 -262 189 -502 366 -565 416 -243 195 -366
308 -451 410 -213 260 -332 534 -404 934 -13 70 -13 394 0 475 20 131 24 147
43 215 128 439 445 763 902 922 69 24 189 56 255 69 181 34 433 30 584 -11 68
-18 40 -2 -56 33 -213 77 -324 98 -543 101 -91 2 -178 1 -195 -1z"/>
<path d="M5298 11285 c-2 -2 -30 -6 -63 -9 -128 -13 -139 -15 -299 -51 -112
-25 -289 -79 -311 -95 -5 -3 -32 -15 -60 -25 -119 -43 -310 -152 -448 -257
-114 -85 -289 -266 -367 -376 -194 -276 -289 -597 -284 -957 1 -82 4 -168 7
-190 3 -22 9 -67 12 -100 20 -172 94 -436 166 -590 47 -102 119 -223 185 -311
64 -86 215 -242 279 -289 22 -17 43 -34 47 -40 4 -5 8 -6 8 -1 0 4 -20 31 -45
58 -102 113 -211 307 -269 478 -78 228 -109 507 -81 710 4 30 9 64 10 75 13
94 81 288 138 395 110 204 311 409 537 547 209 127 490 225 752 260 71 10 367
10 443 0 268 -34 570 -147 1373 -513 134 -61 165 -75 277 -124 310 -135 636
-246 780 -266 22 -3 60 -10 85 -15 45 -8 293 -5 340 5 14 3 48 7 75 10 146 14
181 19 190 24 15 9 -16 -36 -124 -183 -131 -177 -163 -230 -222 -370 -25 -60
-88 -294 -103 -385 -2 -14 -11 -63 -19 -110 -9 -47 -19 -105 -22 -130 -3 -25
-8 -56 -10 -70 -2 -14 -7 -50 -10 -80 -3 -30 -8 -66 -10 -80 -3 -14 -7 -56
-10 -95 -4 -38 -8 -81 -10 -95 -2 -14 -6 -54 -10 -90 -3 -36 -8 -85 -10 -110
-3 -25 -7 -70 -10 -100 -3 -30 -7 -68 -9 -85 -2 -16 -7 -59 -11 -95 -6 -61
-19 -175 -31 -280 -5 -39 -31 -215 -49 -335 -4 -22 -10 -58 -15 -80 -5 -22
-12 -56 -15 -75 -34 -181 -131 -414 -246 -587 -141 -214 -334 -408 -544 -546
-529 -348 -1110 -358 -1601 -25 -102 69 -127 90 -259 223 -161 161 -276 340
-345 535 -35 100 -38 78 -9 -63 54 -267 168 -508 348 -732 65 -82 229 -248
286 -290 22 -17 42 -32 45 -36 7 -8 148 -110 195 -140 208 -137 462 -234 690
-265 22 -3 47 -7 55 -10 51 -17 347 1 490 31 14 3 35 7 46 9 98 20 307 101
434 168 497 264 915 764 1083 1293 33 105 73 298 92 450 4 28 8 64 11 80 2 17
6 46 9 65 3 19 7 60 10 90 3 30 7 66 10 80 2 14 7 59 10 100 4 41 8 89 10 105
5 45 14 142 20 210 5 71 23 287 30 365 3 30 7 80 10 110 7 95 16 194 20 230 2
19 7 67 10 105 12 137 27 264 71 605 4 31 35 216 50 295 3 17 11 58 19 91 8
34 17 74 20 88 3 14 8 38 11 53 11 58 77 270 110 356 19 49 34 92 34 97 0 4
-24 11 -52 15 -29 4 -62 9 -73 11 -42 9 -121 25 -148 29 -15 3 -96 25 -180 50
-245 71 -553 186 -847 317 -25 11 -58 26 -75 33 -74 32 -476 219 -690 320
-220 104 -365 171 -500 232 -156 70 -203 90 -320 137 -49 20 -99 41 -110 46
-24 10 -137 51 -221 78 -82 28 -206 57 -289 68 -22 3 -53 8 -70 11 -32 6 -421
13 -427 8z"/>
<path d="M15999 11286 c-2 -2 -40 -6 -84 -10 -158 -12 -352 -55 -480 -105 -11
-5 -92 -36 -180 -71 -249 -97 -494 -208 -1090 -490 -90 -42 -354 -163 -570
-259 -22 -10 -103 -44 -180 -76 -77 -32 -153 -63 -170 -70 -66 -29 -336 -124
-435 -153 -139 -41 -334 -87 -437 -102 -46 -7 -83 -14 -83 -15 0 -2 16 -45 35
-96 35 -91 96 -289 116 -379 29 -126 52 -237 64 -310 4 -25 9 -52 10 -60 5
-24 24 -161 31 -215 3 -27 8 -58 10 -69 2 -10 6 -44 9 -75 3 -31 8 -67 10 -81
3 -14 7 -56 10 -95 3 -38 8 -81 10 -95 2 -14 7 -56 11 -95 3 -38 7 -86 9 -105
4 -40 13 -146 21 -235 3 -33 7 -80 9 -105 2 -25 7 -76 10 -115 3 -38 7 -95 10
-125 7 -83 14 -167 20 -245 5 -65 10 -118 20 -205 4 -34 15 -139 20 -190 6
-55 34 -262 50 -365 23 -149 63 -299 119 -453 25 -67 123 -257 178 -346 222
-355 543 -654 888 -827 151 -75 335 -142 455 -164 160 -30 240 -36 370 -32 77
3 158 9 180 12 147 24 318 77 460 144 95 45 270 147 297 174 7 7 36 28 63 47
171 117 381 338 507 535 89 138 188 367 212 490 3 17 12 64 20 105 22 113 19
123 -13 35 -78 -217 -170 -362 -347 -545 -87 -90 -240 -213 -329 -266 -170
-100 -352 -163 -545 -189 -45 -6 -259 -7 -286 -1 -12 2 -45 7 -75 11 -186 24
-487 151 -674 287 -397 286 -657 680 -746 1130 -22 112 -37 201 -44 258 -3 25
-7 52 -10 60 -2 8 -7 44 -10 80 -4 36 -8 72 -10 80 -2 8 -6 44 -9 80 -4 36 -9
76 -11 90 -3 14 -7 52 -10 85 -8 92 -25 266 -30 305 -2 19 -7 69 -10 110 -3
41 -8 86 -10 100 -3 14 -7 54 -10 90 -6 65 -22 193 -30 240 -2 14 -6 43 -9 65
-19 155 -72 403 -115 533 -59 181 -99 254 -231 432 -39 52 -88 120 -110 151
l-39 56 47 -8 c26 -4 80 -10 120 -14 40 -4 98 -10 130 -15 112 -16 278 -10
418 15 136 23 524 155 710 240 16 8 82 36 145 63 63 28 150 67 194 87 44 21
121 55 170 77 50 22 108 48 130 58 489 223 864 354 1080 377 88 10 341 9 420
-1 627 -80 1163 -450 1358 -938 33 -83 75 -237 83 -303 3 -27 7 -56 10 -64 6
-18 5 -252 -1 -310 -9 -84 -55 -284 -85 -374 -65 -189 -165 -363 -285 -496
-54 -59 -56 -63 -20 -36 359 268 582 657 670 1170 15 92 31 292 29 376 -2 98
-12 232 -18 250 -3 8 -8 32 -11 54 -3 22 -15 78 -26 124 -114 457 -448 845
-934 1081 -162 79 -292 126 -466 168 -110 27 -170 38 -314 57 -46 7 -361 16
-366 11z"/>
</g>
</svg>
